<?xml version="1.0" standalone="no"?><!DOCTYPE svg PUBLIC "-//W3C//DTD SVG 1.1//EN" "http://www.w3.org/Graphics/SVG/1.1/DTD/svg11.dtd"><svg t="1647676945914" class="icon" viewBox="0 0 1024 1024" version="1.1" xmlns="http://www.w3.org/2000/svg" p-id="5533" xmlns:xlink="http://www.w3.org/1999/xlink" width="200" height="200"><defs><style type="text/css"></style></defs><path d="M965.44 979.68H587.68a37.12 37.12 0 1 1 0-74.24H928V368.8L521.44 108 116.32 368.8v189.12a37.12 37.12 0 1 1-74.24 0V348.8a37.6 37.6 0 0 1 17.12-31.2L500.96 33.12a36 36 0 0 1 39.84 0l444 284.48a37.12 37.12 0 0 1 17.28 31.2v593.76a36.8 36.8 0 0 1-36.64 37.12z" fill="#a486c7" p-id="5534"></path><path d="M348.48 978.08a38.72 38.72 0 0 1-26.4-10.72 37.12 37.12 0 0 1 0-52.32l160-160-160-160a36.96 36.96 0 0 1 52.16-52.32l187.04 185.92a36.8 36.8 0 0 1 0 52.32L374.88 967.36a36.96 36.96 0 0 1-26.4 10.72z" fill="#a486c7" p-id="5535"></path><path d="M516.16 791.68H81.28a37.28 37.28 0 0 1 0-74.4h434.24a37.28 37.28 0 0 1 37.12 37.28 36.64 36.64 0 0 1-36.48 37.12z" fill="#a486c7" p-id="5536"></path></svg>