<?xml version="1.0" standalone="no"?><!DOCTYPE svg PUBLIC "-//W3C//DTD SVG 1.1//EN" "http://www.w3.org/Graphics/SVG/1.1/DTD/svg11.dtd"><svg t="1647677069039" class="icon" viewBox="0 0 1024 1024" version="1.1" xmlns="http://www.w3.org/2000/svg" p-id="1498" xmlns:xlink="http://www.w3.org/1999/xlink" width="200" height="200"><defs><style type="text/css"></style></defs><path d="M112.8 990.4h204.32a35.68 35.68 0 1 0 0-71.36H115.04V356.64l378.4-254.4 384 268v178.4a36.32 36.32 0 0 0 72.64 0V368.96a68.64 68.64 0 0 0-29.6-56.32L534.4 43.2a71.68 71.68 0 0 0-80-0.8l-380.64 256a68.8 68.8 0 0 0-30.56 57.12v565.76a69.44 69.44 0 0 0 69.6 69.12z" fill="#a486c7" p-id="1499"></path><path d="M867.2 808.8H486.08a35.04 35.04 0 1 1 0-70.08H867.2a35.04 35.04 0 0 1 0 70.08z" fill="#a486c7" p-id="1500"></path><path d="M749.92 981.28a34.88 34.88 0 0 1-25.44-58.88l140.96-150.72-148.16-145.28A35.04 35.04 0 0 1 766.4 576l172.48 169.6a35.04 35.04 0 0 1 1.12 48.96l-164.32 176a35.2 35.2 0 0 1-25.76 10.72z" fill="#a486c7" p-id="1501"></path></svg>