<?xml version="1.0" standalone="no"?><!DOCTYPE svg PUBLIC "-//W3C//DTD SVG 1.1//EN" "http://www.w3.org/Graphics/SVG/1.1/DTD/svg11.dtd"><svg t="1647678647460" class="icon" viewBox="0 0 1024 1024" version="1.1" xmlns="http://www.w3.org/2000/svg" p-id="2544" xmlns:xlink="http://www.w3.org/1999/xlink" width="200" height="200"><defs><style type="text/css"></style></defs><path d="M85.333333 810.666667c0-23.466667 19.2-42.666667 42.666667-42.666667h42.666667v-192c0-187.733333 153.6-341.333333 341.333333-341.333333s341.333333 153.6 341.333333 341.333333v192h42.666667c23.466667 0 42.666667 19.2 42.666667 42.666667v149.333333c0 23.466667-19.2 42.666667-42.666667 42.666667H128c-23.466667 0-42.666667-19.2-42.666667-42.666667v-149.333333z m85.333334 42.666666v64h682.666666v-64H170.666667z m85.333333-277.333333v192h512v-192c0-140.8-115.2-256-256-256s-256 115.2-256 256zM469.333333 64v85.333333c0 23.466667 19.2 42.666667 42.666667 42.666667s42.666667-19.2 42.666667-42.666667V64c0-23.466667-19.2-42.666667-42.666667-42.666667s-42.666667 19.2-42.666667 42.666667M119.466667 183.466667c-17.066667 17.066667-17.066667 42.666667 0 59.733333l59.733333 59.733333c8.533333 8.533333 19.2 12.8 29.866667 12.8 10.666667 0 21.333333-4.266667 29.866666-12.8 17.066667-17.066667 17.066667-42.666667 0-59.733333L181.333333 183.466667c-17.066667-17.066667-44.8-17.066667-61.866666 0M844.8 183.466667l-59.733333 59.733333c-17.066667 17.066667-17.066667 42.666667 0 59.733333 8.533333 8.533333 19.2 12.8 29.866666 12.8 10.666667 0 21.333333-4.266667 29.866667-12.8l59.733333-59.733333c17.066667-17.066667 17.066667-42.666667 0-59.733333-17.066667-17.066667-44.8-17.066667-59.733333 0" fill="#a486c7" p-id="2545"></path><path d="M648.533333 439.466667c-19.2-19.2-44.8-34.133333-70.4-44.8-21.333333-8.533333-46.933333 4.266667-55.466666 25.6s4.266667 46.933333 25.6 55.466666c14.933333 4.266667 27.733333 12.8 38.4 25.6 10.666667 10.666667 19.2 23.466667 25.6 38.4 6.4 17.066667 23.466667 27.733333 40.533333 27.733334 4.266667 0 10.666667 0 14.933333-2.133334 21.333333-8.533333 34.133333-32 25.6-55.466666-10.666667-25.6-25.6-49.066667-44.8-70.4" fill="#a486c7" p-id="2546"></path></svg>